<svg width="26" height="26" viewBox="0 0 26 26" fill="none" xmlns="http://www.w3.org/2000/svg">
<path d="M13 0C5.824 0 0 5.824 0 13C0 20.176 5.824 26 13 26C20.176 26 26 20.176 26 13C26 5.824 20.176 0 13 0ZM14.3 22.1H11.7V19.5H14.3V22.1ZM16.991 12.025L15.821 13.221C14.885 14.17 14.3 14.95 14.3 16.9H11.7V16.25C11.7 14.82 12.285 13.52 13.221 12.571L14.833 10.933C15.314 10.465 15.6 9.815 15.6 9.1C15.6 7.67 14.43 6.5 13 6.5C11.57 6.5 10.4 7.67 10.4 9.1H7.8C7.8 6.227 10.127 3.9 13 3.9C15.873 3.9 18.2 6.227 18.2 9.1C18.2 10.244 17.732 11.284 16.991 12.025Z" fill="#4C5366"/>
</svg>
