<svg width="124" height="41" viewBox="0 0 124 41" fill="none" xmlns="http://www.w3.org/2000/svg">
<path d="M45.7417 7.68124H50.2928V20.8353C50.2928 22.314 50.4657 23.3894 50.8113 24.0615C51.349 25.2521 52.5204 25.8666 54.3447 25.8666C56.1498 25.8666 57.3211 25.2713 57.8588 24.0615C58.2045 23.3894 58.3773 22.314 58.3773 20.8353V7.68124H62.9284V20.8353C62.9284 23.1205 62.5828 24.8872 61.8723 26.1546C60.5665 28.4782 58.0509 29.6496 54.3447 29.6496C50.6385 29.6496 48.1229 28.4782 46.7979 26.1546C46.0874 24.8872 45.7417 23.1205 45.7417 20.8353V7.68124Z" fill="#E86003"/>
<path d="M80.2112 14.9592C81.4978 16.3226 82.1507 18.3197 82.1507 20.9698C82.1507 23.7542 81.517 25.8858 80.2496 27.3452C78.9822 28.8046 77.3691 29.5343 75.372 29.5343C74.1046 29.5343 73.0484 29.2271 72.2227 28.5934C71.7618 28.2477 71.3201 27.7293 70.8785 27.0763V35.3337H66.7882V13.2501H70.7632V15.5929C71.2049 14.9016 71.685 14.3639 72.2035 13.9606C73.1252 13.2501 74.239 12.9045 75.5064 12.9045C77.3307 12.9045 78.9053 13.5958 80.2112 14.9592ZM77.0234 17.9357C76.4666 16.9947 75.5448 16.5339 74.2774 16.5339C72.7604 16.5339 71.7234 17.2444 71.1473 18.6654C70.8593 19.4143 70.7056 20.3745 70.7056 21.5459C70.7056 23.3894 71.2049 24.676 72.1843 25.4249C72.7796 25.8666 73.4709 26.0778 74.2774 26.0778C75.4488 26.0778 76.3321 25.6361 76.9466 24.7336C77.5611 23.8502 77.8684 22.6596 77.8684 21.181C77.8684 19.952 77.5995 18.8766 77.0234 17.9357Z" fill="#E86003"/>
<path d="M95.3816 13.5766C96.4954 14.0759 97.3979 14.844 98.1084 15.9194C98.7613 16.8603 99.1838 17.9549 99.3758 19.1839C99.4911 19.9136 99.5295 20.9506 99.5103 22.3332H87.9884C88.046 23.927 88.6029 25.0408 89.6399 25.6745C90.2736 26.0778 91.0417 26.2698 91.925 26.2698C92.866 26.2698 93.6341 26.0202 94.2294 25.5401C94.5559 25.2713 94.8439 24.9064 95.0743 24.4455H99.299C99.1838 25.3865 98.6845 26.3466 97.7628 27.3068C96.3418 28.843 94.3638 29.6112 91.8098 29.6112C89.6975 29.6112 87.8348 28.9582 86.2409 27.6716C84.6279 26.3658 83.8214 24.2535 83.8214 21.3346C83.8214 18.5886 84.5511 16.4955 86.0105 15.0168C87.4699 13.5574 89.3518 12.8277 91.6754 12.8277C93.0388 12.8277 94.2678 13.0773 95.3816 13.5766ZM89.179 17.1484C88.6029 17.7437 88.2188 18.5694 88.0844 19.6064H95.2088C95.132 18.5118 94.7671 17.6668 94.1142 17.11C93.4613 16.5339 92.6356 16.265 91.6562 16.265C90.6 16.2458 89.7743 16.5531 89.179 17.1484Z" fill="#E86003"/>
<path d="M105.828 29.0927H101.68V7.68124H105.828V29.0927Z" fill="#E86003"/>
<path d="M116.14 19.4527C116.908 19.3567 117.465 19.2415 117.792 19.0879C118.387 18.8382 118.675 18.435 118.675 17.9165C118.675 17.2636 118.445 16.8219 117.984 16.5723C117.523 16.3226 116.851 16.2074 115.967 16.2074C114.969 16.2074 114.277 16.4571 113.855 16.9371C113.586 17.2828 113.394 17.7629 113.298 18.3774H109.304C109.4 16.9947 109.784 15.8618 110.475 14.9592C111.57 13.5574 113.452 12.8661 116.14 12.8661C117.888 12.8661 119.424 13.2117 120.787 13.9031C122.132 14.5944 122.823 15.881 122.823 17.8013V25.06C122.823 25.5593 122.823 26.1738 122.861 26.8843C122.9 27.422 122.976 27.7869 123.111 27.9789C123.245 28.1709 123.457 28.3246 123.725 28.459V29.0735H119.232C119.097 28.747 119.021 28.459 118.963 28.1709C118.905 27.8829 118.867 27.5756 118.848 27.2108C118.272 27.8253 117.619 28.363 116.87 28.7854C115.967 29.3039 114.969 29.5536 113.836 29.5536C112.396 29.5536 111.205 29.1503 110.264 28.3246C109.323 27.4988 108.862 26.3466 108.862 24.8488C108.862 22.9093 109.611 21.4883 111.128 20.6241C111.954 20.1441 113.183 19.8176 114.796 19.6064L116.14 19.4527ZM118.675 21.3923C118.406 21.5651 118.137 21.6995 117.868 21.7955C117.6 21.8915 117.235 21.9875 116.755 22.0836L115.814 22.2564C114.93 22.41 114.297 22.602 113.913 22.8325C113.26 23.2165 112.933 23.7926 112.933 24.5992C112.933 25.3097 113.125 25.809 113.529 26.1354C113.932 26.4427 114.412 26.6155 114.988 26.6155C115.891 26.6155 116.716 26.3466 117.484 25.8282C118.252 25.3097 118.637 24.3495 118.675 22.9669V21.3923Z" fill="#E86003"/>
<path d="M15.9578 20.8161C15.9578 22.2948 16.1306 23.3701 16.4763 24.0422C17.014 25.2328 18.1853 25.8473 20.0096 25.8473C21.8147 25.8473 22.9861 25.252 23.5238 24.0422C23.8695 23.3701 24.0423 22.2948 24.0423 20.8161V7.68123H27.6717L19.9904 0L12.3092 7.68123H15.9386V20.8161H15.9578Z" fill="#E86003"/>
<path d="M28.5934 8.58377V20.8353C28.5934 23.1205 28.2477 24.8872 27.5372 26.1546C26.2314 28.4782 23.7158 29.6495 20.0096 29.6495C16.3034 29.6495 13.7878 28.4782 12.4628 26.1546C11.7523 24.8872 11.4066 23.1205 11.4066 20.8353V8.58377L0 20.0096L20.0096 40.0192L40.0192 20.0096L28.5934 8.58377Z" fill="#E86003"/>
</svg>
