<svg width="16" height="16" viewBox="0 0 16 16" fill="none" xmlns="http://www.w3.org/2000/svg">
<path d="M15.1245 3.95337C15.1245 3.93647 15.1245 3.93647 15.1245 3.91958C15.1078 3.88579 15.1078 3.852 15.091 3.81821V3.80132C15.0743 3.76753 15.0409 3.73374 15.0241 3.71684L15.0074 3.69995C14.9907 3.68305 14.9572 3.66616 14.9405 3.64926L14.9237 3.63237H14.907L14.8903 3.61547L7.79648 0.0506842C7.66264 -0.0168947 7.49533 -0.0168947 7.34476 0.0506842L4.95227 1.26711L12.0795 4.96705L12.0963 4.98395C12.113 4.98395 12.113 5.00084 12.1297 5.00084C12.1465 5.01774 12.1465 5.03463 12.1632 5.05153C12.1632 5.06842 12.1632 5.06842 12.1632 5.08532V5.10221V9.02179C12.1632 9.08937 12.1297 9.14005 12.0795 9.17384L10.6407 9.9341C10.557 9.98479 10.4567 9.951 10.4065 9.86653C10.3897 9.84963 10.3897 9.81584 10.3897 9.78205V5.93005L3.17882 2.16253L3.16209 2.14563L0.26769 3.61547L0.25096 3.63237H0.217498L0.200768 3.64926C0.184037 3.66616 0.150576 3.68305 0.133845 3.69995L0.117115 3.71684C0.0836532 3.75063 0.0669226 3.78442 0.050192 3.80132V3.81821C0.0334613 3.852 0.0167307 3.88579 0.0167307 3.91958C0.0167307 3.93647 0.0167307 3.93647 0.0167307 3.95337C0 3.97026 0 4.00405 0 4.03784V4.05474V11.9277C0 12.1135 0.100384 12.2994 0.284421 12.3838L7.32803 15.9486C7.42841 15.9993 7.54552 16.0162 7.66264 15.9824L7.6961 15.9655C7.72956 15.9655 7.74629 15.9486 7.77975 15.9317L14.8735 12.3838C15.0409 12.2994 15.158 12.1304 15.158 11.9277V4.07163V4.05474C15.1412 4.02095 15.1412 3.98716 15.1245 3.95337Z" fill="white"/>
</svg>
