<svg width="124" height="41" viewBox="0 0 124 41" fill="none" xmlns="http://www.w3.org/2000/svg">
<path d="M45.7417 7.68115H50.2928V20.8353C50.2928 22.3139 50.4657 23.3893 50.8113 24.0614C51.349 25.252 52.5204 25.8665 54.3447 25.8665C56.1498 25.8665 57.3211 25.2712 57.8588 24.0614C58.2045 23.3893 58.3773 22.3139 58.3773 20.8353V7.68115H62.9284V20.8353C62.9284 23.1204 62.5828 24.8871 61.8723 26.1545C60.5665 28.4781 58.0509 29.6495 54.3447 29.6495C50.6385 29.6495 48.1229 28.4781 46.7979 26.1545C46.0874 24.8871 45.7417 23.1204 45.7417 20.8353V7.68115Z" fill="white"/>
<path d="M80.2112 14.959C81.4978 16.3224 82.1507 18.3196 82.1507 20.9696C82.1507 23.754 81.517 25.8856 80.2496 27.345C78.9822 28.8044 77.3691 29.5342 75.372 29.5342C74.1046 29.5342 73.0484 29.2269 72.2227 28.5932C71.7618 28.2476 71.3201 27.7291 70.8785 27.0762V35.3335H66.7882V13.25H70.7632V15.5927C71.2049 14.9014 71.685 14.3637 72.2035 13.9605C73.1252 13.25 74.239 12.9043 75.5064 12.9043C77.3307 12.9043 78.9053 13.5956 80.2112 14.959ZM77.0234 17.9355C76.4666 16.9946 75.5448 16.5337 74.2774 16.5337C72.7604 16.5337 71.7234 17.2442 71.1473 18.6652C70.8593 19.4141 70.7056 20.3743 70.7056 21.5457C70.7056 23.3892 71.2049 24.6758 72.1843 25.4247C72.7796 25.8664 73.4709 26.0776 74.2774 26.0776C75.4488 26.0776 76.3321 25.6359 76.9466 24.7334C77.5611 23.85 77.8684 22.6595 77.8684 21.1808C77.8684 19.9518 77.5995 18.8765 77.0234 17.9355Z" fill="white"/>
<path d="M95.3816 13.5766C96.4954 14.0758 97.3979 14.844 98.1084 15.9193C98.7613 16.8603 99.1838 17.9549 99.3758 19.1839C99.4911 19.9136 99.5295 20.9505 99.5103 22.3332H87.9884C88.046 23.927 88.6029 25.0408 89.6399 25.6745C90.2736 26.0778 91.0417 26.2698 91.925 26.2698C92.866 26.2698 93.6341 26.0201 94.2294 25.5401C94.5559 25.2712 94.8439 24.9064 95.0743 24.4455H99.299C99.1838 25.3864 98.6845 26.3466 97.7628 27.3068C96.3418 28.843 94.3638 29.6111 91.8098 29.6111C89.6975 29.6111 87.8348 28.9582 86.2409 27.6716C84.6279 26.3658 83.8214 24.2535 83.8214 21.3346C83.8214 18.5886 84.5511 16.4954 86.0105 15.0168C87.4699 13.5574 89.3518 12.8276 91.6754 12.8276C93.0388 12.8276 94.2678 13.0773 95.3816 13.5766ZM89.179 17.1483C88.6029 17.7436 88.2188 18.5694 88.0844 19.6063H95.2088C95.132 18.5117 94.7671 17.6668 94.1142 17.1099C93.4613 16.5338 92.6356 16.265 91.6562 16.265C90.6 16.2458 89.7743 16.553 89.179 17.1483Z" fill="white"/>
<path d="M105.828 29.0926H101.68V7.68115H105.828V29.0926Z" fill="white"/>
<path d="M116.14 19.4526C116.908 19.3566 117.465 19.2414 117.792 19.0878C118.387 18.8381 118.675 18.4349 118.675 17.9164C118.675 17.2635 118.445 16.8218 117.984 16.5722C117.523 16.3225 116.851 16.2073 115.967 16.2073C114.969 16.2073 114.277 16.4569 113.855 16.937C113.586 17.2827 113.394 17.7628 113.298 18.3772H109.304C109.4 16.9946 109.784 15.8616 110.475 14.9591C111.57 13.5573 113.452 12.866 116.14 12.866C117.888 12.866 119.424 13.2116 120.787 13.9029C122.132 14.5942 122.823 15.8809 122.823 17.8012V25.0599C122.823 25.5592 122.823 26.1737 122.861 26.8842C122.9 27.4219 122.976 27.7868 123.111 27.9788C123.245 28.1708 123.457 28.3244 123.725 28.4589V29.0734H119.232C119.097 28.7469 119.021 28.4589 118.963 28.1708C118.905 27.8828 118.867 27.5755 118.848 27.2107C118.272 27.8252 117.619 28.3628 116.87 28.7853C115.967 29.3038 114.969 29.5534 113.836 29.5534C112.396 29.5534 111.205 29.1502 110.264 28.3244C109.323 27.4987 108.862 26.3465 108.862 24.8487C108.862 22.9092 109.611 21.4881 111.128 20.624C111.954 20.1439 113.183 19.8175 114.796 19.6062L116.14 19.4526ZM118.675 21.3921C118.406 21.565 118.137 21.6994 117.868 21.7954C117.6 21.8914 117.235 21.9874 116.755 22.0834L115.814 22.2563C114.93 22.4099 114.297 22.6019 113.913 22.8324C113.26 23.2164 112.933 23.7925 112.933 24.599C112.933 25.3096 113.125 25.8088 113.529 26.1353C113.932 26.4425 114.412 26.6154 114.988 26.6154C115.891 26.6154 116.716 26.3465 117.484 25.828C118.252 25.3096 118.637 24.3494 118.675 22.9668V21.3921Z" fill="white"/>
<path d="M15.9578 20.8161C15.9578 22.2948 16.1306 23.3701 16.4763 24.0422C17.014 25.2328 18.1853 25.8473 20.0096 25.8473C21.8147 25.8473 22.9861 25.252 23.5238 24.0422C23.8695 23.3701 24.0423 22.2948 24.0423 20.8161V7.68123H27.6717L19.9904 0L12.3092 7.68123H15.9386V20.8161H15.9578Z" fill="white"/>
<path d="M28.5934 8.58374V20.8353C28.5934 23.1205 28.2477 24.8871 27.5372 26.1546C26.2314 28.4781 23.7158 29.6495 20.0096 29.6495C16.3034 29.6495 13.7878 28.4781 12.4628 26.1546C11.7523 24.8871 11.4066 23.1205 11.4066 20.8353V8.58374L0 20.0096L20.0096 40.0192L40.0192 20.0096L28.5934 8.58374Z" fill="white"/>
</svg>
