<?xml version="1.0" encoding="UTF-8"?>
<svg width="155px" height="50px" viewBox="0 0 155 50" version="1.1" xmlns="http://www.w3.org/2000/svg" xmlns:xlink="http://www.w3.org/1999/xlink">
    <!-- Generator: Sketch 61.2 (89653) - https://sketch.com -->
    <title>logo</title>
    <desc>Created with Sketch.</desc>
    <g id="Components" stroke="none" stroke-width="1" fill="none" fill-rule="evenodd">
        <g id="©" transform="translate(-643.000000, -50.000000)" fill="#000000">
            <g id="content">
                <g transform="translate(581.000000, 50.000000)">
                    <g id="welcome-to-the-jungle" transform="translate(62.000000, 0.000000)">
                        <path d="M129.468709,25.5298942 C130.037383,25.5298942 131.488916,26.9821503 131.488916,28.092884 C131.488916,28.1844598 131.452722,28.2390027 131.380012,28.2571569 L131.318628,28.2639596 L127.532703,28.2639596 C129.752732,29.2325497 130.862432,31.0848208 130.862432,33.1635156 C130.862432,36.6969823 127.959994,39.3178359 123.947228,39.3178359 C122.694888,39.3178359 121.641741,39.1750632 120.75951,38.8895178 C120.589222,39.1467603 120.474859,39.4876536 120.474859,39.8298049 C120.474859,40.5295518 121.109334,40.9241082 122.234299,40.9657881 L122.437885,40.9694705 L127.675343,40.9694705 C130.236576,40.9694705 131.659204,41.9380606 131.659204,43.675233 C131.659204,47.09423 124.658542,50 120.788415,50 C118.539481,50 116.917032,49.03141 116.917032,47.5495931 C116.917032,46.6665409 117.514611,45.641345 118.70977,44.7582928 C117.486335,44.2450659 116.831574,43.3337107 116.831574,42.1091362 C116.831574,40.6279482 118.141095,39.2316691 120.161931,38.6907682 C117.686156,37.6649433 116.77502,35.6139225 116.77502,33.6195077 C116.77502,30.1445338 119.762917,27.580286 123.832865,27.580286 C124.914288,27.580286 125.854329,27.7230587 126.707654,27.9513692 C127.589256,26.7834006 128.472743,26.0141892 129.183429,25.6148031 C129.268887,25.5581972 129.383251,25.5298942 129.468709,25.5298942 Z M118.995049,44.8727625 C120.133026,47.4363812 122.723164,48.0055851 124.743372,48.0055851 C126.565014,48.0055851 127.817983,47.3502145 127.817983,46.4105564 C127.817983,45.6538247 127.23033,45.2566739 125.982897,45.2169648 L125.76887,45.2136559 L121.413643,45.2136559 C120.474859,45.2136559 119.64981,45.0998151 118.995049,44.8727625 Z M83.3323264,23.4216386 C83.5032428,23.4216386 83.5032428,23.5920852 83.418413,23.6776231 C82.8045747,24.292033 82.3155512,25.0070512 82.2568211,26.2673296 L82.2509028,26.5267872 L82.2509028,38.6052304 C82.2509028,43.9029146 79.6331163,46.2960866 73.9407188,46.2960866 C73.6560675,46.2960866 73.3714162,46.2677837 73.2576813,46.2388518 C73.0302116,46.1822459 72.9736584,45.9828673 73.2004997,45.8690265 C75.4543954,44.9065092 76.7522971,42.9085397 76.8391275,40.2583732 L76.8437849,39.9719486 L76.8437849,26.5267872 C76.8437849,25.1028341 76.331664,24.3329937 75.6769031,23.6776231 C75.602677,23.6027775 75.5933988,23.4629235 75.7058977,23.4291295 L75.761733,23.4216386 L83.3323264,23.4216386 Z M98.5595369,27.5807892 C98.6505248,27.5807892 98.7049164,27.617017 98.7230336,27.6901166 L98.729825,27.7518649 L98.729825,39.2315433 C98.729825,40.4567468 99.1577445,41.7385562 99.6692371,42.764381 C99.7182499,42.8619589 99.6832408,42.9392047 99.6006148,42.9592836 L99.5555023,42.9643886 L93.7493699,42.9643886 C93.6588847,42.9643886 93.6037893,42.9277583 93.5853705,42.8541756 L93.5784534,42.792055 L93.5784534,40.0013837 C92.6685747,42.2511541 90.9895719,43.5335925 88.854373,43.5335925 C86.3923872,43.5335925 84.9781198,41.7292912 84.9014491,38.5137179 L84.8981599,38.2346504 L84.8981599,32.3092695 C84.8981599,30.5154912 84.4432205,29.8028856 84.0737393,29.4324314 C83.9999508,29.3591133 84.0106459,29.243745 84.0868307,29.1948516 L84.1302926,29.1764469 L89.4808572,27.694001 C89.7648801,27.6090922 89.8792433,27.5807892 89.9640732,27.5807892 C90.0555638,27.5807892 90.1100559,27.617017 90.1281932,27.6901166 L90.1349896,27.7518649 L90.1349896,38.0642037 C90.1349896,39.5736946 90.6760156,40.371209 91.6437043,40.371209 C92.7928951,40.371209 93.442458,39.3442732 93.4907243,37.3407241 L93.4936236,37.0956137 L93.4936236,32.3092695 C93.4936236,30.5154912 93.0380558,29.8028856 92.6685747,29.4324314 C92.5953248,29.3591133 92.6056352,29.243745 92.6813033,29.1948516 L92.7244995,29.1764469 L98.0756925,27.694001 C98.3603438,27.6090922 98.4740787,27.5807892 98.5595369,27.5807892 Z M148.16722,27.5806634 C151.639589,27.5806634 154.115364,29.3467678 154.115364,31.8537806 C154.115364,34.6450809 151.012476,36.5828899 146.345577,36.5828899 C145.947191,36.5828899 145.634263,36.553958 145.321335,36.5250261 C145.976096,38.491138 147.484182,39.7735764 149.875128,39.7735764 C152.863024,39.7735764 154.314557,37.7508585 154.655761,37.1527227 C154.798401,36.8961093 155.025871,36.9810182 154.997594,37.2376316 C154.770125,39.0320389 152.607277,43.5334667 147.256084,43.5334667 C142.844304,43.5334667 139.799854,40.456621 139.799854,35.7275117 C139.799854,30.8279558 143.07303,27.5806634 148.16722,27.5806634 Z M65.8287224,27.5806634 C69.3017195,27.5806634 71.7774946,29.3467678 71.7774946,31.8537806 C71.7774946,34.6450809 68.674607,36.5828899 64.0077081,36.5828899 C63.609322,36.5828899 63.2963941,36.553958 62.9834662,36.5250261 C63.638227,38.491138 65.1463133,39.7735764 67.5372585,39.7735764 C70.5251546,39.7735764 71.9760593,37.7508585 72.3178922,37.1527227 C72.460532,36.8961093 72.6880017,36.9810182 72.6597251,37.2376316 C72.431627,39.0320389 70.2694083,43.5334667 64.9182153,43.5334667 C60.5064344,43.5334667 57.4626135,40.456621 57.4626135,35.7275117 C57.4626135,30.8279558 60.7351608,27.5806634 65.8287224,27.5806634 Z M7.42795355,24.4187202 C7.54231676,24.4187202 7.59887,24.4753261 7.59887,24.5897958 C7.59887,24.8168484 7.48450679,26.2414305 7.48450679,28.1496786 L7.48450679,28.1496786 L11.4124433,28.1496786 C11.5261782,28.1496786 11.639913,28.2075424 11.5827314,28.3213832 L11.5827314,28.3213832 L11.0140572,29.4321169 C10.9568756,29.5459577 10.9568756,29.6031926 10.8431407,29.6031926 L10.8431407,29.6031926 L7.48450679,29.6031926 L7.48450679,39.0890851 C7.48450679,40.3142886 8.13989597,40.9973332 9.3061494,40.9973332 C10.2059742,40.9973332 10.9656727,40.5558071 11.6499669,39.7564059 C11.0253678,38.5431526 10.7583109,37.1575657 10.7583109,35.7851869 C10.7583109,31.0554486 14.1728697,27.5804747 18.8114919,27.5804747 C24.1626849,27.5804747 26.866558,31.0554486 26.866558,35.1581192 C26.866558,40.0010692 23.536829,43.533278 18.9541317,43.533278 C15.4239529,43.533278 13.2472817,42.2357447 12.0320154,40.4086318 C10.9977196,42.3772595 9.11324002,43.4760431 6.71601113,43.4760431 C3.87012655,43.4760431 2.24830537,41.9665522 2.24830537,39.3173956 L2.24830537,39.3173956 L2.24830537,29.6031926 L0.170916451,29.6031926 C0.0565532374,29.6031926 -1.77536997e-14,29.5459577 -1.77536997e-14,29.4610488 C-1.77536997e-14,29.3472081 0.0848298561,29.2616703 0.37010952,29.0622917 L0.37010952,29.0622917 L6.94410918,24.6470307 C7.20048386,24.4753261 7.34249532,24.4187202 7.42795355,24.4187202 Z M37.0555663,24.4182799 C37.1693011,24.4182799 37.2258543,24.4755148 37.2258543,24.5899845 C37.2258543,24.8067165 37.122224,26.114586 37.1128031,27.8927166 L37.1121195,28.1498673 L40.7554047,28.1498673 C40.8501838,28.1498673 40.9052533,28.1900505 40.8882496,28.268961 L40.8691396,28.3209429 L40.3846668,29.4612375 C40.3625482,29.5291646 40.3215283,29.5793804 40.2477728,29.5967496 L40.1861021,29.6033813 L37.1121195,29.6033813 L37.1121195,39.0892738 C37.1121195,40.5132269 37.7386037,41.1119916 38.9337621,41.1119916 C39.6733528,41.1119916 40.1861021,40.940916 40.4996584,40.5993937 C40.5844883,40.5132269 40.6416699,40.484295 40.6988515,40.484295 C40.8414913,40.484295 40.8414913,40.6276966 40.7836813,40.7698404 C40.1289205,42.5648767 38.4499177,43.4762318 36.1161541,43.4762318 C33.3839282,43.4762318 31.9634189,42.0568391 31.8798364,39.5552669 L31.8759181,39.3175843 L31.8759181,29.6033813 L29.7985292,29.6033813 C29.6841659,29.6033813 29.6276127,29.5461464 29.6276127,29.4612375 C29.6276127,29.3610765 29.6930417,29.283548 29.8996721,29.1321629 L29.9970939,29.0624803 L36.5717219,24.6472194 C36.8280966,24.4755148 36.970108,24.4182799 37.0555663,24.4182799 Z M47.3861461,22.2535442 C47.499881,22.2535442 47.557691,22.310779 47.557691,22.4239908 C47.557691,22.5842485 47.4580679,23.2156909 47.4447848,24.22525 L47.4433277,24.4473376 L47.4433277,30.9136194 C48.3827399,28.7770608 50.004561,27.5807892 52.0825783,27.5807892 C54.5445642,27.5807892 55.9588315,29.3850904 56.0355022,32.6000857 L56.0387915,32.8791024 L56.0387915,39.2315433 C56.0387915,40.4567468 56.4654542,41.7385562 56.9775752,42.764381 C57.026588,42.8619589 56.9915789,42.9392047 56.9085572,42.9592836 L56.863212,42.9643886 L49.9769128,42.9643886 C49.8631779,42.9643886 49.805368,42.8782218 49.8631779,42.764381 C50.4109589,41.6931666 50.7427859,40.6943562 50.7942863,39.5480072 L50.8013333,39.2315433 L50.8013333,33.050178 C50.8013333,31.5400581 50.2615641,30.7425437 49.2938753,30.7425437 C48.1434762,30.7425437 47.4944478,31.770061 47.4462243,33.7736549 L47.4433277,34.018768 L47.4433277,39.2315433 C47.4433277,40.4567468 47.8706189,41.7385562 48.3827399,42.764381 C48.4312141,42.8619589 48.3965896,42.9392047 48.3140846,42.9592836 L48.269005,42.9643886 L41.3814491,42.9643886 C41.2677142,42.9643886 41.2105326,42.8782218 41.2677142,42.764381 C41.8154952,41.6931666 42.1483782,40.6943562 42.2000546,39.5480072 L42.2071263,39.2315433 L42.2071263,28.4072355 C42.2071263,27.0506225 41.761012,25.9427512 41.0297131,25.0135648 L40.8686997,24.8171629 L40.5846768,24.4473376 C40.5119655,24.3734804 40.5218911,24.2589593 40.5982298,24.2095268 L40.6418584,24.1907242 L46.9029301,22.3680139 C47.1869531,22.2824761 47.3019446,22.2535442 47.3861461,22.2535442 Z M111.22476,27.5807892 C113.686746,27.5807892 115.101013,29.3850904 115.177684,32.6000857 L115.180973,32.8791024 L115.180973,39.2315433 C115.180973,40.4567468 115.607636,41.7385562 116.119757,42.764381 C116.16877,42.8619589 116.133761,42.9392047 116.050739,42.9592836 L116.005394,42.9643886 L109.119095,42.9643886 C109.004731,42.9643886 108.948178,42.8782218 109.004731,42.764381 C109.553088,41.6931666 109.884963,40.6943562 109.936468,39.5480072 L109.943515,39.2315433 L109.943515,33.050178 C109.943515,31.5400581 109.403746,30.7425437 108.435429,30.7425437 C107.286238,30.7425437 106.636094,31.770061 106.587783,33.7736549 L106.584881,34.018768 L106.584881,39.2315433 C106.584881,40.4567468 106.955619,41.7668591 107.524293,42.764381 C107.573306,42.8619589 107.538297,42.9392047 107.456067,42.9592836 L107.411187,42.9643886 L100.524259,42.9643886 C100.409268,42.9643886 100.352714,42.8782218 100.409268,42.764381 C101.009465,41.7196875 101.298668,40.6987764 101.3427,39.5485597 L101.34868,39.2315433 L101.34868,32.3092695 C101.34868,30.5154912 100.864835,29.8311886 100.524259,29.4324314 C100.450471,29.3591133 100.460704,29.243745 100.537153,29.1948516 L100.580812,29.1764469 L105.930749,27.694001 C106.2154,27.6090922 106.329135,27.5807892 106.415221,27.5807892 C106.528328,27.5807892 106.584881,27.6373951 106.584881,27.7518649 C106.584881,28.3210687 106.528328,29.660113 106.50068,31.1136269 C107.411187,28.8625986 109.09019,27.5807892 111.22476,27.5807892 Z M138.120663,22.2535442 C138.234398,22.2535442 138.291579,22.310779 138.291579,22.4239908 C138.291579,22.5842485 138.191956,23.2156909 138.178673,24.22525 L138.177216,24.4473376 L138.177216,39.2315433 C138.177216,40.4567468 138.605136,41.7385562 139.116628,42.764381 C139.165641,42.8619589 139.130632,42.9392047 139.048006,42.9592836 L139.002893,42.9643886 L132.115966,42.9643886 C132.001603,42.9643886 131.945049,42.8782218 132.001603,42.764381 C132.549384,41.6931666 132.882267,40.6943562 132.933943,39.5480072 L132.941015,39.2315433 L132.941015,28.4072355 C132.941015,27.0506225 132.494353,25.9427512 131.764003,25.0135648 L131.603217,24.8171629 L131.318565,24.4473376 C131.245854,24.3734804 131.25578,24.2589593 131.331722,24.2095268 L131.375118,24.1907242 L137.636819,22.3680139 C137.92147,22.2824761 138.034576,22.2535442 138.120663,22.2535442 Z M18.5600378,28.4624356 L18.4420107,28.4641559 C16.8478378,28.5490647 16.3363452,31.0277746 16.5638149,35.6424142 C16.8201895,40.2853567 17.5880568,42.7357636 19.1822298,42.6495968 C20.7757743,42.564688 21.3161719,40.0583041 21.0887022,35.4430356 C20.8329559,30.7994641 20.0355553,28.3786181 18.4420107,28.4641559 Z M123.610135,28.4618539 L123.49166,28.4645961 C122.268225,28.5205731 121.726571,30.2590035 121.926392,33.5056669 C122.125585,36.9240349 122.950634,38.4624577 124.146421,38.4335258 C125.455942,38.3769199 125.910882,36.5252777 125.711689,33.3635232 C125.524945,30.3197762 124.862691,28.6016247 123.725443,28.4697446 L123.610135,28.4618539 Z M147.739929,28.4643446 C145.776275,28.4643446 144.951226,31.5971672 144.951226,34.0475741 C144.951226,34.7312477 145.036684,35.3859894 145.178695,35.9847541 C147.655099,35.4432243 149.048822,33.7054228 149.048822,30.9141225 C149.048822,29.2618589 148.537329,28.4643446 147.739929,28.4643446 Z M65.4020596,28.4643446 C63.4384056,28.4643446 62.6127283,31.5971672 62.6127283,34.0475741 C62.6127283,34.7312477 62.6988149,35.3859894 62.8408263,35.9847541 C65.3166014,35.4432243 66.7109529,33.7054228 66.7109529,30.9141225 C66.7109529,29.2618589 66.1994603,28.4643446 65.4020596,28.4643446 Z M41.7026714,2.69242865 C42.7985475,4.50381775 43.8014249,7.31021296 42.4315798,12.2852435 C41.6800502,15.0136483 39.8741168,20.3943545 33.7726508,21.3038228 C32.5762357,21.4818169 32.1904169,21.0446935 31.7656393,20.4553631 C30.9343067,19.3037473 29.9238888,16.8407613 30.363119,13.6903279 C30.5711092,12.1971898 30.8764967,11.2518711 31.317612,9.97131967 C29.3162557,13.6626539 27.1270171,18.0464672 25.0502565,21.0692227 C24.8158748,21.4107451 24.5846349,21.4522561 24.4526773,21.3786684 C24.3295169,21.3101123 24.3521382,21.0786571 24.4325695,20.7547455 C26.7154352,11.5386744 20.5838075,4.04845466 18.7037265,1.8087475 C18.5584386,1.66624437 18.5101343,1.28946208 18.9009269,1.2363631 L18.9990601,1.23010931 L26.3490959,1.23010931 C26.5991868,1.23010931 26.619923,1.3049549 26.7449685,1.3741399 C27.1804285,1.61377159 29.7554859,7.13284778 28.6640084,12.3544285 C31.0983111,7.89639861 33.1945511,4.91012239 33.2561313,4.81074758 C33.4050548,4.57174485 33.5615187,4.55979471 33.7060437,4.61451376 C33.9341417,4.70005157 33.8939261,4.90760658 33.8731899,5.0069814 C33.0330602,9.12852057 33.6350379,13.4909493 34.9709511,15.7419777 C36.2195209,17.8464596 38.7656733,18.4351611 39.6900046,16.3086657 C41.9659582,11.0713612 36.2540812,4.73590198 35.1468945,3.55535429 C34.6178075,2.98300565 34.7931226,2.55846133 34.9257085,2.42009132 C37.3059714,0.0149691183 40.577262,0.830094217 41.7026714,2.69242865 Z M88.8828381,5.32711926 C94.2327744,5.32711926 96.9360191,8.80209316 96.9360191,12.9047637 C96.9360191,17.7470848 93.6062902,21.2799225 89.0248496,21.2799225 C84.344755,21.2799225 82.0417815,19.0005912 81.2079354,16.2294175 C80.4218454,18.3055964 78.248316,21.2799225 73.9684927,21.2799225 C69.5290635,21.2799225 66.5399108,18.145842 66.5399108,13.4739676 C66.5399108,8.26119225 70.1266428,5.32711926 74.3096972,5.32711926 C76.786729,5.32711926 78.7786597,6.40892109 80.2301928,8.94486584 C80.5765814,9.58639949 80.5485257,10.1013437 80.0274586,10.3274887 L79.9166365,10.3688189 L75.7612303,11.5946514 C75.5626656,11.6506283 75.4483024,11.5946514 75.534389,11.1952652 C76.1030632,8.43226788 75.6474955,6.2095425 74.2254957,6.2095425 C72.488683,6.2095425 71.6912823,9.40022894 71.6912823,11.7367951 C71.6912823,15.0985572 73.3420085,17.5187743 76.558631,17.5187743 C78.9659138,17.5187743 80.3747177,16.1558298 80.9905197,15.336931 C80.8799267,14.7425689 80.827772,14.1356278 80.827772,13.5312024 C80.827772,8.80209316 84.2429592,5.32711926 88.8828381,5.32711926 Z M130.20742,5.32711926 C133.679789,5.32711926 136.156192,7.09259469 136.156192,9.60023649 C136.156192,12.3915368 133.053304,14.3280879 128.385777,14.3280879 C127.987391,14.3280879 127.674463,14.3004139 127.361535,14.2714819 C128.016296,16.2369649 129.525011,17.5187743 131.914699,17.5187743 C134.903224,17.5187743 136.354757,15.4973144 136.69659,14.8985496 C136.838601,14.6413072 137.066071,14.727474 137.038422,14.9834585 C136.810324,16.7784948 134.647477,21.2799225 129.296284,21.2799225 C124.88576,21.2799225 121.839426,18.2024479 121.839426,13.4739676 C121.839426,8.57504057 125.11323,5.32711926 130.20742,5.32711926 Z M51.7404312,5.32711926 C55.2128,5.32711926 57.6892034,7.09259469 57.6892034,9.60023649 C57.6892034,12.3915368 54.5863158,14.3280879 49.9187886,14.3280879 C49.5204025,14.3280879 49.2074746,14.3004139 48.8945467,14.2714819 C49.5493075,16.2369649 51.0580222,17.5187743 53.4477106,17.5187743 C56.436235,17.5187743 57.8883965,15.4973144 58.229601,14.8985496 C58.3716125,14.6413072 58.5997106,14.727474 58.5714339,14.9834585 C58.3439643,16.7784948 56.1804887,21.2799225 50.8292957,21.2799225 C46.4181432,21.2799225 43.3730656,18.2024479 43.3730656,13.4739676 C43.3730656,8.57504057 46.6462413,5.32711926 51.7404312,5.32711926 Z M116.54598,5.32693058 C118.840533,5.32693058 120.249181,7.12769369 120.327802,10.1814786 L120.331277,10.4541681 L120.331277,16.9776847 C120.331277,18.2028882 120.644204,19.5136294 121.156325,20.5105224 C121.2048,20.6081002 121.170175,20.6844219 121.088066,20.7042367 L121.043219,20.709272 L114.383133,20.709272 C114.269398,20.709272 114.212216,20.6243632 114.269398,20.5105224 C114.786946,19.4744627 115.045356,18.4623137 115.088063,17.3233342 L115.094447,16.9776847 L115.094447,10.6252437 C115.094447,9.28682843 114.553421,8.48868511 113.756649,8.48868511 C112.773376,8.48868511 112.130618,9.51291697 112.08077,11.3593862 L112.077646,11.5944627 L112.077646,16.9776847 C112.077646,18.2028882 112.447127,19.4846975 112.902695,20.5105224 C112.952246,20.6081002 112.916852,20.6844219 112.834105,20.7042367 L112.78896,20.709272 L106.128874,20.709272 C106.015767,20.709272 105.958585,20.6243632 106.015767,20.5105224 C106.507609,19.448161 106.787051,18.4575316 106.833794,17.3226821 L106.840816,16.9776847 L106.840816,10.6252437 C106.840816,9.28682843 106.300418,8.48868511 105.503646,8.48868511 C104.519167,8.48868511 103.87694,9.51291697 103.827137,11.3593862 L103.824015,11.5944627 L103.824015,16.9776847 C103.824015,18.2028882 104.136943,19.5136294 104.649692,20.5105224 C104.698705,20.6081002 104.663696,20.6844219 104.580674,20.7042367 L104.535329,20.709272 L97.7621363,20.709272 C97.6484014,20.709272 97.5918482,20.6243632 97.6484014,20.5105224 C98.2480228,19.4658289 98.5371774,18.4454462 98.5812058,17.2948332 L98.5871852,16.9776847 L98.5871852,10.0560399 C98.5871852,8.26100356 98.1033408,7.57732996 97.7621363,7.17857278 C97.6888864,7.10525465 97.6991967,6.98988641 97.7756563,6.94099299 L97.8193179,6.92258827 L103.169254,5.44077135 C103.454534,5.35523353 103.56764,5.32693058 103.653727,5.32693058 C103.767462,5.32693058 103.824015,5.38416544 103.824015,5.49737726 C103.824015,6.06783904 103.767462,7.40625432 103.739185,8.85913934 C104.649692,6.60873995 106.328695,5.32693058 108.292349,5.32693058 C110.158606,5.32693058 111.442328,6.5188171 111.889414,8.62174573 L111.935634,8.85913934 L111.992188,8.85913934 C112.902695,6.60873995 114.582326,5.32693058 116.54598,5.32693058 Z M64.861662,4.97379915e-14 C64.9753969,4.97379915e-14 65.0319501,0.0572348642 65.0319501,0.170446684 C65.0319501,0.330704303 64.9328744,0.96159883 64.9196643,1.97108486 L64.9182153,2.19316452 L64.9182153,16.9779992 C64.9182153,18.2025737 65.344878,19.4843831 65.8576274,20.5102079 C65.9066402,20.6083248 65.871631,20.6847236 65.7886093,20.7045494 L65.7432642,20.7095865 L58.8557082,20.7095865 C58.7426017,20.7095865 58.6854201,20.6246777 58.7426017,20.5102079 C59.2903827,19.43957 59.6227377,18.4413362 59.6743261,17.2945948 L59.6813855,16.9779992 L59.6813855,6.15306238 C59.6813855,4.79644934 59.2347238,3.68912593 58.5048845,2.76001265 L58.3442156,2.56361875 L58.0595643,2.19316452 C57.9857758,2.11984639 57.9964709,2.00494025 58.0726556,1.9553867 L58.1161175,1.93655106 L64.3778177,0.113840774 C64.662469,0.0283029548 64.7755754,4.97379915e-14 64.861662,4.97379915e-14 Z M88.6301273,6.20786936 L88.5121002,6.2095425 C86.919184,6.29570927 86.4058063,8.77379021 86.6339044,13.3890587 C86.8902791,18.0320012 87.6587747,20.4817792 89.2523193,20.3962414 C90.8464922,20.3107035 91.3868898,17.8036907 91.1587917,13.1896801 C90.9158328,8.77828723 90.1840307,6.37233638 88.7451927,6.21556851 L88.6301273,6.20786936 Z M129.780757,6.2095425 C127.817103,6.2095425 126.991426,9.34362303 126.991426,11.793401 C126.991426,12.4770746 127.076884,13.1318163 127.219524,13.7299521 C129.69467,13.1896801 131.08965,11.4518787 131.08965,8.65994943 C131.08965,7.00768582 130.578158,6.2095425 129.780757,6.2095425 Z M51.3137685,6.2095425 C49.3501144,6.2095425 48.5250655,9.34362303 48.5250655,11.793401 C48.5250655,12.4770746 48.6098954,13.1318163 48.7525352,13.7299521 C51.2283102,13.1896801 52.6226617,11.4518787 52.6226617,8.65994943 C52.6226617,7.00768582 52.1111691,6.2095425 51.3137685,6.2095425 Z"></path>
                    </g>
                </g>
            </g>
        </g>
    </g>
</svg>