<svg width="30" height="22" viewBox="0 0 30 22" fill="none" xmlns="http://www.w3.org/2000/svg">
<path d="M25.6667 6.11111V4.88889L22 7.33333L18.3333 4.88889V6.11111L22 8.55556L25.6667 6.11111ZM26.8889 0H2.44444C1.1 0 0 1.1 0 2.44444V19.5556C0 20.9 1.1 22 2.44444 22H26.8889C28.2333 22 29.3211 20.9 29.3211 19.5556L29.3333 2.44444C29.3333 1.1 28.2333 0 26.8889 0ZM9.77778 3.66667C11.8067 3.66667 13.4444 5.30444 13.4444 7.33333C13.4444 9.36222 11.8067 11 9.77778 11C7.74889 11 6.11111 9.36222 6.11111 7.33333C6.11111 5.30444 7.74889 3.66667 9.77778 3.66667ZM17.1111 18.3333H2.44444V17.1111C2.44444 14.6667 7.33333 13.3222 9.77778 13.3222C12.2222 13.3222 17.1111 14.6667 17.1111 17.1111V18.3333ZM26.8889 11H17.1111V3.66667H26.8889V11Z" fill="#4C5366"/>
</svg>
