<svg width="80" height="80" viewBox="0 0 80 80" fill="none" xmlns="http://www.w3.org/2000/svg">
<path d="M55.0821 30.1639C41.3116 30.1639 30.1641 41.3115 30.1641 55.082C30.1641 68.8525 41.3116 80 55.0821 80C68.8526 80 80.0001 68.8525 80.0001 55.082C80.0001 41.3115 68.8526 30.1639 55.0821 30.1639Z" fill="#F0F0F0"/>
<path d="M36.7215 3.93443C18.6231 3.93443 3.93457 18.6229 3.93457 36.7213C3.93457 54.8197 18.6231 69.5082 36.7215 69.5082C54.8198 69.5082 69.5083 54.8197 69.5083 36.7213C69.5083 18.6229 54.8198 3.93443 36.7215 3.93443ZM36.7215 55.082C26.6231 55.082 18.3608 46.8197 18.3608 36.7213C18.3608 26.6229 26.6231 18.3607 36.7215 18.3607C46.8198 18.3607 55.0821 26.6229 55.0821 36.7213C55.0821 46.8197 46.8198 55.082 36.7215 55.082Z" fill="white" stroke="#475663" stroke-width="2" stroke-miterlimit="10"/>
<path d="M3.93457 17.0492V10.4918C3.93457 6.81967 6.81982 3.93443 10.4919 3.93443H17.0493" stroke="#BCC0C4" stroke-width="2" stroke-miterlimit="10" stroke-linecap="round"/>
<path d="M69.5083 15.7377V10.4918C69.5083 6.81967 66.6231 3.93443 62.9509 3.93443H56.3936" stroke="#BCC0C4" stroke-width="2" stroke-miterlimit="10" stroke-linecap="round"/>
<path d="M3.93457 56.3934V62.9508C3.93457 66.623 6.81982 69.5082 10.4919 69.5082H15.7378" stroke="#BCC0C4" stroke-width="2" stroke-miterlimit="10" stroke-linecap="round"/>
<path d="M69.5083 56.3934V62.9508C69.5083 66.623 66.6231 69.5082 62.9509 69.5082H56.3936" stroke="#BCC0C4" stroke-width="2" stroke-miterlimit="10" stroke-linecap="round"/>
<path d="M39.3444 1.31148H34.0985C32.6559 1.31148 31.4756 2.49181 31.4756 3.93443V19.6721C31.4756 21.1148 32.6559 22.2951 34.0985 22.2951H39.3444C40.7871 22.2951 41.9674 21.1148 41.9674 19.6721V3.93443C41.9674 2.49181 40.7871 1.31148 39.3444 1.31148Z" fill="#E86003" stroke="#475663" stroke-width="2" stroke-miterlimit="10"/>
<path d="M39.3444 51.1475H34.0985C32.6559 51.1475 31.4756 52.3279 31.4756 53.7705V69.5082C31.4756 70.9508 32.6559 72.1312 34.0985 72.1312H39.3444C40.7871 72.1312 41.9674 70.9508 41.9674 69.5082V53.7705C41.9674 52.3279 40.7871 51.1475 39.3444 51.1475Z" fill="#E86003" stroke="#475663" stroke-width="2" stroke-miterlimit="10"/>
<path d="M72.1311 39.3443V34.0984C72.1311 32.6557 70.9507 31.4754 69.5081 31.4754H53.7704C52.3278 31.4754 51.1475 32.6557 51.1475 34.0984V39.3443C51.1475 40.7869 52.3278 41.9672 53.7704 41.9672H69.5081C70.9507 41.9672 72.1311 40.7869 72.1311 39.3443Z" fill="#E86003" stroke="#475663" stroke-width="2" stroke-miterlimit="10"/>
<path d="M22.2951 39.3443V34.0984C22.2951 32.6557 21.1148 31.4754 19.6722 31.4754H3.93447C2.49185 31.4754 1.31152 32.6557 1.31152 34.0984V39.3443C1.31152 40.7869 2.49185 41.9672 3.93447 41.9672H19.6722C21.1148 41.9672 22.2951 40.7869 22.2951 39.3443Z" fill="#E86003" stroke="#475663" stroke-width="2" stroke-miterlimit="10"/>
</svg>
